<svg viewBox="0 0 1120 480" role="img" aria-label="液冷技术路线对比图"><defs><linearGradient id="routeFlow" x1="0" x2="1"><stop stop-color="#f05a67"/><stop offset=".5" stop-color="#f2783f"/><stop offset="1" stop-color="#72cfff"/></linearGradient></defs><path d="M66 91C270 28 417 137 566 82S866 31 1056 98" fill="none" stroke="#21465a" stroke-width="24"/><path d="M66 91C270 28 417 137 566 82S866 31 1056 98" fill="none" stroke="url(#routeFlow)" stroke-width="5" stroke-dasharray="12 10"/><text x="20" y="31" class="axis">TECHNOLOGY MAP / 热流路径决定采购环节</text><text x="20" y="53" class="note">路线选择不是“谁更先进”，而是由热流密度、改造难度、工质合规和维护方式共同决定。</text><rect x="20" y="155" width="340" height="250" rx="16" fill="#102c3c" stroke="#23485b"/><rect x="20" y="155" width="340" height="7" rx="3" fill="#f2783f"/><text x="42" y="194" class="eyebrow">ROUTE 01</text><text x="42" y="230" class="route-title">冷板式液冷</text><text x="42" y="252" fill="#f2783f" class="route-phase">当前主流</text><rect x="42" y="278" width="296" height="42" rx="9" fill="#14394c"/><text x="58" y="304" class="node-title">芯片 → TIM → 冷板 → CDU</text><text x="42" y="350" class="node-sub">典型场景</text><text x="112" y="350" class="node-title">AI服务器 / 高密度机柜</text><text x="42" y="378" class="node-sub">价值抓手</text><text x="112" y="378" class="node-title">冷板 + CDU + UQD</text><rect x="386" y="155" width="340" height="250" rx="16" fill="#102c3c" stroke="#23485b"/><rect x="386" y="155" width="340" height="7" rx="3" fill="#72cfff"/><text x="408" y="194" class="eyebrow">ROUTE 02</text><text x="408" y="230" class="route-title">单相浸没式</text><text x="408" y="252" fill="#72cfff" class="route-phase">场景化成长</text><rect x="408" y="278" width="296" height="42" rx="9" fill="#14394c"/><text x="424" y="304" class="node-title">设备 → 介电液 → 换热器</text><text x="408" y="350" class="node-sub">典型场景</text><text x="478" y="350" class="node-title">超算 / 特定AI集群</text><text x="408" y="378" class="node-sub">价值抓手</text><text x="478" y="378" class="node-title">工质 + 罐体 + 运维</text><rect x="752" y="155" width="340" height="250" rx="16" fill="#102c3c" stroke="#23485b"/><rect x="752" y="155" width="340" height="7" rx="3" fill="#f05a67"/><text x="774" y="194" class="eyebrow">ROUTE 03</text><text x="774" y="230" class="route-title">两相浸没 / 喷淋</text><text x="774" y="252" fill="#f05a67" class="route-phase">验证期</text><rect x="774" y="278" width="296" height="42" rx="9" fill="#14394c"/><text x="790" y="304" class="node-title">相变 / 直接接触 → 冷凝</text><text x="774" y="350" class="node-sub">典型场景</text><text x="844" y="350" class="node-title">极高热流密度场景</text><text x="774" y="378" class="node-sub">价值抓手</text><text x="844" y="378" class="node-title">工质 + 密封 + 合规</text></svg>