<svg viewBox="0 0 1120 430" role="img" aria-label="液冷产业链四层泳道图"><defs><linearGradient id="chainFlow" x1="0" x2="1"><stop stop-color="#72cfff"/><stop offset=".55" stop-color="#f2783f"/><stop offset="1" stop-color="#f05a67"/></linearGradient><marker id="arrow" markerWidth="8" markerHeight="8" refX="6" refY="3" orient="auto"><path d="M0 0L6 3L0 6" fill="#f2783f"/></marker></defs><path d="M186 75H1042" stroke="#23485b" stroke-width="2" stroke-dasharray="5 8"/><text x="20" y="31" class="axis">SUPPLY CHAIN ATLAS / 从原料到算力机柜</text><text x="1044" y="31" text-anchor="end" class="axis">价值流向 →</text><line x1="184" y1="105" x2="1045" y2="105" stroke="#17394b" stroke-width="52" stroke-linecap="round"/><rect x="20" y="78" width="144" height="54" rx="10" fill="#102c3c" stroke="#72cfff"/><text x="34" y="95" class="eyebrow">UPSTREAM</text><text x="34" y="117" class="lane-title">上游材料</text><rect x="208" y="83" width="166" height="44" rx="9" fill="#14394c" stroke="#72cfff" stroke-opacity=".42"/><text x="220" y="103" class="node-title">铜 / 铝</text><text x="220" y="119" class="node-sub">巨化</text><path d="M380 105h10" stroke="#72cfff" stroke-width="2" marker-end="url(#arrow)"/><rect x="396" y="83" width="166" height="44" rx="9" fill="#14394c" stroke="#72cfff" stroke-opacity=".42"/><text x="408" y="103" class="node-title">TIM</text><text x="408" y="119" class="node-sub">新宙邦</text><path d="M568 105h10" stroke="#72cfff" stroke-width="2" marker-end="url(#arrow)"/><rect x="584" y="83" width="166" height="44" rx="9" fill="#14394c" stroke="#72cfff" stroke-opacity=".42"/><text x="596" y="103" class="node-title">工质</text><text x="596" y="119" class="node-sub">中石</text><path d="M756 105h10" stroke="#72cfff" stroke-width="2" marker-end="url(#arrow)"/><rect x="772" y="83" width="166" height="44" rx="9" fill="#14394c" stroke="#72cfff" stroke-opacity=".42"/><text x="784" y="103" class="node-title">密封</text><text x="784" y="119" class="node-sub">思泉</text><circle cx="1050" cy="105" r="7" fill="#72cfff"/><line x1="184" y1="185" x2="1045" y2="185" stroke="#17394b" stroke-width="52" stroke-linecap="round"/><rect x="20" y="158" width="144" height="54" rx="10" fill="#102c3c" stroke="#f2783f"/><text x="34" y="175" class="eyebrow">CORE PARTS</text><text x="34" y="197" class="lane-title">中游部件</text><rect x="208" y="163" width="166" height="44" rx="9" fill="#14394c" stroke="#f2783f" stroke-opacity=".42"/><text x="220" y="183" class="node-title">冷板</text><text x="220" y="199" class="node-sub">英维克</text><path d="M380 185h10" stroke="#f2783f" stroke-width="2" marker-end="url(#arrow)"/><rect x="396" y="163" width="166" height="44" rx="9" fill="#14394c" stroke="#f2783f" stroke-opacity=".42"/><text x="408" y="183" class="node-title">CDU</text><text x="408" y="199" class="node-sub">高澜</text><path d="M568 185h10" stroke="#f2783f" stroke-width="2" marker-end="url(#arrow)"/><rect x="584" y="163" width="166" height="44" rx="9" fill="#14394c" stroke="#f2783f" stroke-opacity=".42"/><text x="596" y="183" class="node-title">UQD</text><text x="596" y="199" class="node-sub">申菱</text><path d="M756 185h10" stroke="#f2783f" stroke-width="2" marker-end="url(#arrow)"/><rect x="772" y="163" width="166" height="44" rx="9" fill="#14394c" stroke="#f2783f" stroke-opacity=".42"/><text x="784" y="183" class="node-title">Manifold</text><text x="784" y="199" class="node-sub">中航光电</text><circle cx="1050" cy="185" r="7" fill="#f2783f"/><line x1="184" y1="265" x2="1045" y2="265" stroke="#17394b" stroke-width="52" stroke-linecap="round"/><rect x="20" y="238" width="144" height="54" rx="10" fill="#102c3c" stroke="#f05a67"/><text x="34" y="255" class="eyebrow">INTEGRATION</text><text x="34" y="277" class="lane-title">系统交付</text><rect x="208" y="243" width="166" height="44" rx="9" fill="#14394c" stroke="#f05a67" stroke-opacity=".42"/><text x="220" y="263" class="node-title">机柜级液冷</text><text x="220" y="279" class="node-sub">英维克</text><path d="M380 265h10" stroke="#f05a67" stroke-width="2" marker-end="url(#arrow)"/><rect x="396" y="243" width="166" height="44" rx="9" fill="#14394c" stroke="#f05a67" stroke-opacity=".42"/><text x="408" y="263" class="node-title">一次/二次侧</text><text x="408" y="279" class="node-sub">曙光数创</text><path d="M568 265h10" stroke="#f05a67" stroke-width="2" marker-end="url(#arrow)"/><rect x="584" y="243" width="166" height="44" rx="9" fill="#14394c" stroke="#f05a67" stroke-opacity=".42"/><text x="596" y="263" class="node-title">监控运维</text><text x="596" y="279" class="node-sub">Vertiv</text><circle cx="1050" cy="265" r="7" fill="#f05a67"/><line x1="184" y1="345" x2="1045" y2="345" stroke="#17394b" stroke-width="52" stroke-linecap="round"/><rect x="20" y="318" width="144" height="54" rx="10" fill="#102c3c" stroke="#a9b7c5"/><text x="34" y="335" class="eyebrow">APPLICATION</text><text x="34" y="357" class="lane-title">下游应用</text><rect x="208" y="323" width="166" height="44" rx="9" fill="#14394c" stroke="#a9b7c5" stroke-opacity=".42"/><text x="220" y="343" class="node-title">AI数据中心</text><text x="220" y="359" class="node-sub">NVIDIA生态</text><path d="M380 345h10" stroke="#a9b7c5" stroke-width="2" marker-end="url(#arrow)"/><rect x="396" y="323" width="166" height="44" rx="9" fill="#14394c" stroke="#a9b7c5" stroke-opacity=".42"/><text x="408" y="343" class="node-title">超算</text><text x="408" y="359" class="node-sub">云厂商</text><path d="M568 345h10" stroke="#a9b7c5" stroke-width="2" marker-end="url(#arrow)"/><rect x="584" y="323" width="166" height="44" rx="9" fill="#14394c" stroke="#a9b7c5" stroke-opacity=".42"/><text x="596" y="343" class="node-title">储能</text><text x="596" y="359" class="node-sub">ODM/OEM</text><path d="M756 345h10" stroke="#a9b7c5" stroke-width="2" marker-end="url(#arrow)"/><rect x="772" y="323" width="166" height="44" rx="9" fill="#14394c" stroke="#a9b7c5" stroke-opacity=".42"/><text x="784" y="343" class="node-title">汽车热管理</text><text x="784" y="359" class="node-sub">ODM/OEM</text><circle cx="1050" cy="345" r="7" fill="#a9b7c5"/><text x="20" y="408" class="note">研究重点：价值量、认证权、交付边界和现金回款分别落在不同层，不把产业链整体收入直接等同液冷收入。</text></svg>