<svg viewBox="0 0 1120 300" role="img" aria-label="液冷行业催化剂验证时间轴"><text x="20" y="31" class="axis">CATALYST TIMELINE / 催化剂需要跨过三道门</text><path d="M92 128H1030" stroke="#c8d6dd" stroke-width="4"/><circle cx="110" cy="128" r="22" fill="#f7fafb" stroke="#2e76c9" stroke-width="4"/><text x="110" y="134" text-anchor="middle" class="step-number">01</text><text x="110" y="190" text-anchor="middle" class="route-title">平台发布</text><text x="110" y="215" text-anchor="middle" class="node-title">技术规格</text><text x="110" y="239" text-anchor="middle" class="node-sub">2025—2026</text><path d="M135 128h156" stroke="#2e76c9" stroke-width="3" stroke-dasharray="7 8"/><circle cx="325" cy="128" r="22" fill="#f7fafb" stroke="#2e76c9" stroke-width="4"/><text x="325" y="134" text-anchor="middle" class="step-number">02</text><text x="325" y="190" text-anchor="middle" class="route-title">客户认证</text><text x="325" y="215" text-anchor="middle" class="node-title">样品 / 小批</text><text x="325" y="239" text-anchor="middle" class="node-sub">持续发生</text><path d="M350 128h156" stroke="#2e76c9" stroke-width="3" stroke-dasharray="7 8"/><circle cx="540" cy="128" r="22" fill="#f7fafb" stroke="#f2783f" stroke-width="4"/><text x="540" y="134" text-anchor="middle" class="step-number">03</text><text x="540" y="190" text-anchor="middle" class="route-title">批量交付</text><text x="540" y="215" text-anchor="middle" class="node-title">订单 / 出货</text><text x="540" y="239" text-anchor="middle" class="node-sub">2026H2—2027</text><path d="M565 128h156" stroke="#f2783f" stroke-width="3" stroke-dasharray="7 8"/><circle cx="755" cy="128" r="22" fill="#f7fafb" stroke="#f05a67" stroke-width="4"/><text x="755" y="134" text-anchor="middle" class="step-number">04</text><text x="755" y="190" text-anchor="middle" class="route-title">财务兑现</text><text x="755" y="215" text-anchor="middle" class="node-title">利润 / 回款</text><text x="755" y="239" text-anchor="middle" class="node-sub">季度验证</text><path d="M780 128h156" stroke="#f05a67" stroke-width="3" stroke-dasharray="7 8"/><circle cx="970" cy="128" r="22" fill="#f7fafb" stroke="#63737d" stroke-width="4"/><text x="970" y="134" text-anchor="middle" class="step-number">05</text><text x="970" y="190" text-anchor="middle" class="route-title">估值重估</text><text x="970" y="215" text-anchor="middle" class="node-title">分部贡献</text><text x="970" y="239" text-anchor="middle" class="node-sub">条件触发</text><text x="20" y="280" class="note">最强验证：客户认证 → 稳定量产 → 收入、毛利和经营现金流同步改善。</text></svg>